<?xml version="1.0" encoding="utf-8"?>
<!-- Generator: Adobe Illustrator 18.1.0, SVG Export Plug-In . SVG Version: 6.00 Build 0)  -->
<svg version="1.1" xmlns="http://www.w3.org/2000/svg" xmlns:xlink="http://www.w3.org/1999/xlink" x="0px" y="0px"
	 viewBox="0 0 348 91" enable-background="new 0 0 348 91" xml:space="preserve">
<g id="Laag_3" display="none">
	<rect x="-120" y="-55.2" display="inline" fill="#F08AB0" width="585.3" height="231.3"/>
</g>
<g id="Laag_1">
	<path fill="#2E373B" d="M39.8,62.1v7.8h-9.3v-7.8H8.2v-7.6L32,18.1h7.8v35.6h5.5v8.3H39.8z M30.5,33.8l-12.9,20h12.9V33.8z"/>
	<path fill="#2E373B" d="M67.2,70.8c-10.6,0-17.8-6.6-17.8-18.2V35c0-10.9,6.7-17.8,17.4-17.8c10.5,0,17.3,6.8,17.3,17.3v18.1
		C84.1,64.2,77.4,70.8,67.2,70.8z M74.8,35c0-6-2.9-9.2-7.9-9.2s-8.1,3.5-8.1,9.2v17.3c0,6.4,2.9,9.9,8.2,9.9c5,0,7.8-3.1,7.8-9.7
		V35z"/>
	<path fill="#2E373B" d="M118.2,62.1v7.8h-9.3v-7.8H86.6v-7.6l23.8-36.4h7.8v35.6h5.5v8.3H118.2z M108.9,33.8L96,53.8h12.9V33.8z"/>
	<path fill="#2E373B" d="M174.7,70.8c-15.2,0-27.2-11.8-27.2-26.7c0-15.1,11.9-26.8,27.3-26.8c14.8,0,26.6,12,26.6,26.7
		C201.4,59.1,189.7,70.8,174.7,70.8z M174.6,26.5c-9.9,0-17.5,7.6-17.5,17.6c0,9.8,7.7,17.5,17.5,17.5c9.8,0,17.1-7.5,17.1-17.4
		S184.2,26.5,174.6,26.5z"/>
	<path fill="#2E373B" d="M226.8,70.8c-11.3,0-20.6-9.1-20.6-20.3c0-11.1,9.2-20.3,20.5-20.3c11.7,0,20.7,9,20.7,20.6
		C247.5,61.7,238.1,70.8,226.8,70.8z M226.8,38.7c-6.1,0-11.2,5.3-11.2,11.6c0,6.7,5,11.9,11.3,11.9c6.2,0,11.2-5.3,11.2-11.8
		C238.1,44,233.1,38.7,226.8,38.7z"/>
	<path fill="#2E373B" d="M274,70.8c-4.8,0-8.4-1.4-11.9-4.6v16.6h-9.3V31.1h8.5v4.6c3-3.5,7.5-5.5,12.7-5.5
		c11.2,0,19.3,8.5,19.3,20.2C293.3,62.1,285.2,70.8,274,70.8z M272.8,38.7c-6.4,0-11.3,5-11.3,11.7c0,6.8,4.9,11.8,11.5,11.8
		c6.2,0,11-5.1,11-11.7C284,43.8,279.1,38.7,272.8,38.7z"/>
	<path fill="#2E373B" d="M310.7,70.8c-7.7,0-13.2-4.2-14.2-13.2h9.4c0.9,3.3,2.5,4.7,5.2,4.7c2.4,0,4.2-1.6,4.2-3.8
		c0-2.2-0.3-2.9-6.6-5c-7.7-2.6-10.8-5.8-10.8-11.5c0-6.7,5.7-11.8,12.9-11.8c6.6,0,12.4,4.3,12.7,11.6h-9.1c-0.4-2-1.7-3.1-3.6-3.1
		c-2,0-3.6,1.4-3.6,3.3c0,2,0.2,2.2,6.6,4.2c8.1,2.5,10.8,5.6,10.8,11.3C324.6,65,318.5,70.8,310.7,70.8z"/>
	<path fill="#2E373B" d="M331,56.7V18.1h9.3v38.6H331z M331,69.9v-9h9.3v9H331z"/>
</g>
<g id="Laag_2">
	<g>
		<path fill="#C4E7FB" d="M28.9,22.7c0.9,0.5,3.7-2.7,4.4-2.7s2.1,0.9,3.1,1.1c1.1,0.3,3.7-1.7,3.5-3s-4.8-2-6.5-1.3
			C31.8,17.6,27.1,21.7,28.9,22.7z"/>
		<path fill="#C4E7FB" d="M8.2,56.9c0.7-0.1,1.1,5,1.9,5s2.6-0.9,5.3-0.9s6.5,2.1,9.4,0.9s5.4-0.8,7-0.5s3.9,3,5,2.1
			s3.6-2.6,5.3-2.3s3.1-0.4,4,0.1s1.1,0.4-0.2,1.3s-1.8-0.4-1.9,1.3s-1.4,4.5-1.4,4.5l0.8-5.1c0,0-2.1-1-2.1-0.4s-1.5,9.9-1.7,11.8
			c-0.5-1.9,0.5-11,0.5-11s-1.1,0.5-2.1,1.4s-3.7,12.8-3.7,12.8s1.6-12.3,0.5-12.1s-2.8,1-3.8-0.1s-3.4-2.9-4.7-2.1
			C25,64.3,24,68.5,24,68.5s0-5.4-0.5-5.3s-1.7,3.5-1.7,3.5l0-3.3c0,0-2.9,6.3-2.8,9.1c-0.6-4.1,0.5-8.9-0.4-8.8s-4.1,2-5.4,1.1
			s-6.6-0.4-6.7-1.6S6.6,57,8.2,56.9z"/>
		<path fill="#C4E7FB" d="M107.8,22.7c0.9,0.5,3.7-2.7,4.4-2.7c0.7,0,2.1,0.9,3.1,1.1s3.7-1.7,3.5-3c-0.2-1.3-4.8-2-6.5-1.3
			C110.6,17.6,105.9,21.7,107.8,22.7z"/>
		<path fill="#C4E7FB" d="M252.8,34.2c1,0.5,1.6-1.9,2.3-1.9s2.8,0.8,4,1c1.2,0.3,2.6-1.6,2.4-2.9s-3.4-1.8-5.2-1.1
			C254.5,30.1,250.8,33.1,252.8,34.2z"/>
		<path fill="#C4E7FB" d="M340.3,20.9c-1.1,0.5,0.6-1.9-0.3-1.9c-0.9,0-3.1,0.8-4.4,1c-1.3,0.3-4.1-1-3.8-2.2s5-2.4,7-1.7
			S342.5,19.9,340.3,20.9z"/>
		<path fill="#C4E7FB" d="M51.3,25.3c1.2,0.7,4.4,0,6-1.9c1.6-1.9,4.5-3,5.4-2.4s0.5,8,0.5,8s1.5-8.9,2-8.2c0.5,0.7,1.5,1.9,4.1,2
			s2.6,2.9,6.3,2.9s6-0.2,6.4-1.4c0.5-1.2-2.5-4.8-3.4-5.6c-0.7-0.6-4.5-3.2-8.9-2.1c-5.5,1.4-7.5,1-12.4,2.7
			C54.6,20.3,50.9,24,51.3,25.3z"/>
		<path fill="#C4E7FB" d="M50.9,60.8c0.1-0.9,3.1,1.3,3.8,3s3.4,4,6.1,4.2c2.8,0.2,3.5,2.8,5.6,2.6s5.6-3.1,7.6-2.6
			c2,0.6,4.9-2,5.5-2c0.6,0,0-1.1,0.6-0.6c0.6,0.5-1.9,3.6-2.6,4.2s-2.4,5.4-2.4,5.4L75,70.8c0,0-1.4-0.5-1.6,1s-1.8,10.6-1.8,10.6
			l0.5-10.3c0,0-2.8,0.3-3.2,1.5s-2.1,11.3-2.1,11.3s0.4-11.5-0.1-12c-0.5-0.5-2.1,5.5-2.1,5.5L64.5,73c0,0-1.5-1.3-2.4-1
			s-1.1,8.1-1.1,8.1l-0.6-9.3c0,0-1.7-2-2.4-0.5s-1,6.1-1,6.1s0.1-6.5-0.5-7.1S50.7,63.1,50.9,60.8z"/>
		<path fill="#C4E7FB" d="M151.7,58.5c0.1-0.9,3.2,2.4,4.4,4.1c1.2,1.6,5.3,4,9.6,4.2c4.3,0.2,5.5,2.8,8.8,2.6s8.8-3.1,12-2.6
			c3.1,0.6,6.5-1.6,6.9-3.4c0.2-1,1.7-3.3,2.6-2.8c0.9,0.5-2.6,7.2-3.8,7.8c-1.2,0.6-3.5,5.3-3.5,5.3l0.1-3.5c0,0-2.7-0.9-3.1,0.6
			c-0.4,1.5-2.5,10.4-2.5,10.4l0.1-10.3c0,0-3.5,0.6-4.1,1.9c-0.6,1.3-3.6,10.9-3.6,10.9s0.9-11.9,0.1-12.4
			c-0.8-0.5-3.4,5.5-3.4,5.5l-0.2-4.6c0,0-2.3-1.5-3.7-1.2s-1.7,7.9-1.7,7.9l-0.1-8.1c0,0-3.3-3-4.5-1.5s-1.7,5.9-1.7,5.9
			s0.5-5.9-0.5-6.5S151.4,60.9,151.7,58.5z"/>
		<path fill="#C4E7FB" d="M157,22.8c-0.3,1.1,5.6,0.3,9.1-0.3s5.9-2.1,6.6-1.2s1.7,12.9,1.7,12.9s2.7-13.1,3.4-13.2s2.5,2.2,5,2.9
			s5-1.3,7.3,0.9s5.7,4.2,5.5,2.6c-0.2-1.6-0.5-5.5-2.5-6.4c-2-0.9-12.6-6.3-16.5-4.9C164.1,20.6,158.9,16.4,157,22.8z"/>
		<path fill="#C4E7FB" d="M263.8,32.6c0.9,1.4,4.4-0.3,6.1,0c1.7,0.4,6.2-2.6,7.2,0.4c0.4,1.2,4.2,3.5,5.4,2.5
			c1.2-1,6.6,2.1,7.1,0.8c0.5-1.2-3.4-6.1-7.6-6.5c-1.3-0.1-5.5-3.8-8.7-1.4C269.9,30.9,262.9,31.2,263.8,32.6z"/>
		<path fill="#C4E7FB" d="M288.7,64c0.7,0.6-1.4,3.7-2.3,4.3s-2.6,13.4-2.6,13.4s0.8-12.2-0.2-11.8s-2.1,8.3-2.2,7.9
			s0.5-7.1-0.3-6.8s-5.1,0-5.4,3.3s-1.1,11.5-1.1,11.5s0.3-13-0.2-13.2s-2,6.6-2,6.6l0.3-6.3c0,0-2-2.4-2.6-1.4
			c-0.6,1-1.5,9.7-1.5,9.7s0.5-9.2,0.2-9.6s-2.3-1.4-2-2.1c0.3-0.7,3.7-1.1,5.3-0.4s2.5,0.9,3.4,0.3s3.6-1.6,4.6-1.1s3.1,0.5,3.9-1
			S287.8,63.3,288.7,64z"/>
		<path fill="#C4E7FB" d="M297.8,62.9c0.6,2.2,1.9,5.1,2.8,5.7s0.9,12.9,0.9,12.9s0.3-12.1,1.3-11.7s0.9,8.4,1.1,8s0.6-6.9,1.3-6.7
			s5-0.8,5.3,2.5s0.1,12.2,0.1,12.2s0.9-13.1,1.4-13.4s0.7,6.8,0.7,6.8l1.2-6.9c0,0,1.5-2,2.1-1c0.6,1,0.4,9.9,0.4,9.9
			s0.9-9.3,1.1-9.7c0.3-0.4,0.5-2.2,1.7-3.6c-1.8,0.3-2.7,0.6-4.3,1.2s-2.5,0.9-3.4,0.3s-3.6-1.6-4.6-1.1s-2.7,0.2-3.9-1
			C301.8,65.8,298.6,62.2,297.8,62.9z"/>
		<path fill="#C4E7FB" d="M331.6,70.3c0.1,0.9,0.4,1.4,1.4,1.6s1,14.6,1,14.6s0.7-14.4,1.5-15.3s4.9,0,5.4-0.9s-0.2-3.5-1.8-2.5
			s-2.5,3-4.2,2.4S331.6,70.3,331.6,70.3z"/>
		<path fill="#C4E7FB" d="M299.8,36c4.3-3.8,5.8-2.8,7.1-3.1s0.1,2.5,0.8,4.5c0.6-1.5,1.1-5,1.1-5s2.1-1.2,2.9,0.1
			s0.5,10.9,0.5,10.9s0.5-11.5,1.5-11.3c1,0.2,3.6,0.9,4.1-0.1c0.4-1-1-4.3-3-3.5c-4.9,1.9-5.4,2-7.8,1.8S298.9,35.1,299.8,36z"/>
		<path fill="#FFFFFF" d="M28.9,22.7c0.9,0.5,2.6-3.4,3.3-3.4s2.1,0.9,3.1,1.1c1.1,0.3,4.8-1.1,4.6-2.4s-5.9-2.6-7.6-1.9
			C30.7,17,27.1,21.7,28.9,22.7z"/>
		<path fill="#FFFFFF" d="M8.2,56.9c0.7-0.1,0,4.4,0.8,4.4s2.6-0.9,5.3-0.9s6.5,2.1,9.4,0.9s5.4-0.8,7-0.5s3.9,3,5,2.1
			s3.6-2.6,5.3-2.3s3.5-0.1,4.4,0.4s1.3,0.2,0,1.1s-1.8,0-1.9,1.6s-0.9,4.6-0.9,4.6l-0.3-5.8c0,0-1.5-0.6-1.5,0s-1,10.1-1.3,12
			C39,72.8,38.9,63,38.9,63S38,64,37,64.9s-2.8,12.9-2.8,12.9s0.5-12.9-0.6-12.8s-2.1,1.3-3.1,0.1s-3.2-2.9-4.5-2s-2,5.4-2,5.4
			s-0.6-5.5-1.1-5.4s-1.1,3.6-1.1,3.6l-0.6-3.9c0,0-2.3,6.9-2.1,9.8c-0.6-4.1-0.6-9.5-1.5-9.4s-4.1,2-5.4,1.1s-5.5,0.3-5.6-1
			S6.6,57,8.2,56.9z"/>
		<path fill="#C4E7FB" d="M86.7,56.9c0.7-0.1,1.1,5,1.9,5s2.6-0.9,5.3-0.9s6.5,2.1,9.4,0.9s5.4-0.8,7-0.5s3.9,3,5,2.1
			s3.6-2.6,5.3-2.3s3.1-0.4,4,0.1s1.1,0.4-0.2,1.3s-1.8-0.4-1.9,1.3s-1.4,4.5-1.4,4.5l0.8-5.1c0,0-2.1-1-2.1-0.4s-1.5,9.9-1.7,11.8
			c-0.5-1.9,0.5-11,0.5-11s-1.1,0.5-2.1,1.4s-3.7,12.8-3.7,12.8s1.6-12.3,0.5-12.1s-2.8,1-3.8-0.1s-3.4-2.9-4.7-2.1
			c-1.3,0.9-2.3,5.1-2.3,5.1s0-5.4-0.5-5.3s-1.7,3.5-1.7,3.5l0-3.3c0,0-2.9,6.3-2.8,9.1c-0.6-4.1,0.5-8.9-0.4-8.8s-4.1,2-5.4,1.1
			s-6.6-0.4-6.7-1.6S85.1,57,86.7,56.9z"/>
		<path fill="#FFFFFF" d="M86.7,56.9c0.7-0.1,0,4.4,0.8,4.4s2.6-0.9,5.3-0.9s6.5,2.1,9.4,0.9s5.4-0.8,7-0.5s3.9,3,5,2.1
			s3.6-2.6,5.3-2.3s3.5-0.1,4.4,0.4s1.3,0.2,0,1.1s-1.8,0-1.9,1.6s-0.9,4.6-0.9,4.6l-0.3-5.8c0,0-1.5-0.6-1.5,0s-1,10.1-1.3,12
			c-0.5-1.9-0.6-11.6-0.6-11.6s-0.9,1-1.9,1.9s-2.8,12.9-2.8,12.9s0.5-12.9-0.6-12.8s-2.1,1.3-3.1,0.1s-3.2-2.9-4.5-2s-2,5.4-2,5.4
			s-0.6-5.5-1.1-5.4s-1.1,3.6-1.1,3.6l-0.6-3.9c0,0-2.3,6.9-2.1,9.8c-0.6-4.1-0.6-9.5-1.5-9.4s-4.1,2-5.4,1.1s-5.5,0.3-5.6-1
			S85.1,57,86.7,56.9z"/>
		<path fill="#FFFFFF" d="M107.8,22.7c0.9,0.5,2.6-3.4,3.3-3.4c0.7,0,2.1,0.9,3.1,1.1s4.8-1.1,4.6-2.4c-0.2-1.3-5.9-2.6-7.6-1.9
			C109.5,17,105.9,21.7,107.8,22.7z"/>
		<path fill="#FFFFFF" d="M252.8,34.2c1,0.5,0.5-2.5,1.2-2.5s2.8,0.8,4,1s3.7-1,3.5-2.2s-4.5-2.4-6.3-1.7S250.8,33.1,252.8,34.2z"/>
		<path fill="#FFFFFF" d="M340.3,20.9c-1.1,0.5-0.5-2.5-1.4-2.5c-0.9,0-3.1,0.8-4.4,1c-1.3,0.3-4.1-1-3.8-2.2s5-2.4,7-1.7
			C339.7,16.3,342.5,19.9,340.3,20.9z"/>
		<path fill="#FFFFFF" d="M51.3,25.3c1.2,0.7,3.3-0.6,4.9-2.5s4.5-3,5.4-2.4s1.6,8.6,1.6,8.6s0.4-9.5,0.9-8.8s1.5,1.9,4.1,2
			s2.6,2.9,6.3,2.9s6-0.2,6.4-1.4c0.5-1.2-2.5-4.8-3.4-5.6c-0.7-0.6-4.5-3.2-8.9-2.1c-5.5,1.4-7.5,1-12.4,2.7
			C53.5,19.7,50.9,24,51.3,25.3z"/>
		<path fill="#FFFFFF" d="M50.9,60.8c0.1-0.9,2,0.7,2.7,2.4s3.4,4,6.1,4.2c2.8,0.2,3.5,2.8,5.6,2.6s5.6-3.1,7.6-2.6
			c2,0.6,4.9-2,5.5-2c0.6,0,1.1-0.5,1.7,0c0.6,0.5-2.4,3.2-3.2,3.9s-1.9,5.8-1.9,5.8l-0.6-4.1c0,0-1.4-0.9-1.6,0.6s-1.3,11-1.3,11
			L71,71.5c0,0-2.3,0.6-2.6,1.9s-1.6,11.5-1.6,11.5s-0.2-11.6-0.7-12.1c-0.5-0.5-1.5,5.6-1.5,5.6l-0.8-5.6c0,0-1.1-1.5-2-1.1
			s-0.8,8.5-0.8,8.5l-0.8-8.8c0,0-1.8-3-2.5-1.5s-0.8,6.5-0.8,6.5s-0.4-6.5-1-7.1S50.7,63.1,50.9,60.8z"/>
		<path fill="#FFFFFF" d="M151.7,58.5c0.1-0.9,2.1,1.8,3.3,3.4c1.2,1.6,5.3,4,9.6,4.2c4.3,0.2,5.5,2.8,8.8,2.6s8.8-3.1,12-2.6
			c3.1,0.6,6.5-1.6,6.9-3.4c0.2-1,2.6-2.8,3.6-2.3c0.9,0.5-3,6.9-4.2,7.5s-2.9,5.8-2.9,5.8l-1-4.1c0,0-2.2-0.9-2.6,0.6
			c-0.4,1.5-2,11-2,11l-1-10.9c0,0-3.5,0.6-4.1,1.9c-0.6,1.3-2.5,11.5-2.5,11.5s-0.3-11.6-1-12.1c-0.8-0.5-2.4,5.6-2.4,5.6l-1.2-5.6
			c0,0-1.8-1.5-3.1-1.1c-1.4,0.4-1.2,8.5-1.2,8.5l-1.2-8.8c0,0-2.7-3-3.9-1.5s-1.2,6.5-1.2,6.5s-0.6-6.5-1.6-7.1
			S151.4,60.9,151.7,58.5z"/>
		<path fill="#FFFFFF" d="M157,22.8c-0.3,1.1,4.5-0.3,8-0.9s5.9-2.1,6.6-1.2c0.8,0.9,2.8,12.9,2.8,12.9s1.6-13.1,2.3-13.2
			s2.5,2.2,5,2.9c2.5,0.6,5-1.3,7.3,0.9s6.9,4.5,6.7,2.9c-0.2-1.6-1.7-5.7-3.7-6.6s-12.6-6.3-16.5-4.9C163,20,158.9,16.4,157,22.8z"
			/>
		<path fill="#C4E7FB" d="M244.1,61.6c-0.1-0.7-2.4,1.8-3.3,3.1c-0.9,1.2-4,3-7.3,3.2c-3.3,0.1-4.2,2.1-6.7,1.9
			c-2.5-0.2-6.7-2.4-9.1-1.9c-2.4,0.4-5-1.2-5.2-2.6c-0.2-0.7-1.3-2.5-2-2.1c-0.7,0.4,2,5.5,2.9,5.9s2.7,4,2.7,4l-0.1-2.6
			c0,0,2-0.7,2.3,0.4c0.3,1.1,1.9,7.9,1.9,7.9l-0.1-7.8c0,0,2.7,0.5,3.1,1.4c0.4,0.9,2.7,8.2,2.7,8.2s-0.7-9-0.1-9.4
			c0.6-0.4,2.6,4.1,2.6,4.1l0.1-3.5c0,0,1.8-1.2,2.8-0.9c1,0.3,1.3,6,1.3,6l0.1-6.2c0,0,2.5-2.3,3.4-1.1c0.9,1.1,1.3,4.4,1.3,4.4
			s-0.4-4.5,0.4-4.9C238.5,68.8,244.3,63.4,244.1,61.6z"/>
		<path fill="#C4E7FB" d="M239.7,34.2c0.3,0.8-4.2,0.2-6.9-0.2c-2.6-0.5-4.4-1.6-5-0.9c-0.6,0.7-1.3,9.8-1.3,9.8s-2-9.9-2.6-10
			c-0.6-0.1-1.9,1.7-3.8,2.2c-1.9,0.5-3.8-1-5.5,0.7s-4.3,3.2-4.2,2c0.2-1.2,0.4-4.2,1.9-4.8s9.6-4.7,12.5-3.7
			C234.3,32.6,238.2,29.4,239.7,34.2z"/>
		<path fill="#FFFFFF" d="M244.1,61.6c-0.1-0.7-1.6,1.4-2.5,2.6s-4,3-7.3,3.2c-3.3,0.1-4.2,2.1-6.7,1.9c-2.5-0.2-6.7-2.4-9.1-1.9
			c-2.4,0.4-5-1.2-5.2-2.6c-0.2-0.7-2-2.1-2.7-1.7c-0.7,0.4,2.3,5.2,3.2,5.7s2.2,4.4,2.2,4.4l0.7-3.1c0,0,1.6-0.7,1.9,0.4
			c0.3,1.1,1.5,8.3,1.5,8.3l0.7-8.2c0,0,2.7,0.5,3.1,1.4s1.9,8.7,1.9,8.7s0.2-8.8,0.8-9.2c0.6-0.4,1.8,4.2,1.8,4.2l0.9-4.2
			c0,0,1.3-1.1,2.4-0.9c1,0.3,0.9,6.4,0.9,6.4l0.9-6.6c0,0,2.1-2.3,3-1.1c0.9,1.1,0.9,4.9,0.9,4.9s0.4-4.9,1.2-5.4
			C239.4,68.3,244.3,63.4,244.1,61.6z"/>
		<path fill="#FFFFFF" d="M239.7,34.2c0.3,0.8-3.4-0.2-6.1-0.7c-2.6-0.5-4.4-1.6-5-0.9c-0.6,0.7-2.1,9.8-2.1,9.8s-1.2-9.9-1.8-10
			s-1.9,1.7-3.8,2.2c-1.9,0.5-3.8-1-5.5,0.7c-1.7,1.7-5.2,3.4-5.1,2.2s1.3-4.3,2.8-5c1.5-0.7,9.6-4.7,12.5-3.7
			C235.1,32.1,238.2,29.4,239.7,34.2z"/>
		<path fill="#FFFFFF" d="M263.6,32.4c0.9,1.4,3.7-0.7,5.4-0.4c1.7,0.4,6.2-2.6,7.2,0.4c0.4,1.2,4.2,3.5,5.4,2.5s6.6,2.1,7.1,0.8
			c0.5-1.2-3.4-6.1-7.6-6.5c-1.3-0.1-5.5-3.8-8.7-1.4S262.7,30.9,263.6,32.4z"/>
		<path fill="#FFFFFF" d="M288.7,64c0.7,0.6-2,3.3-2.9,4s-2,13.8-2,13.8s0.3-12.3-0.8-11.9s-1.5,8.4-1.6,8s-0.3-7.3-1-7.1
			s-4.9,0-5.1,3.2s-0.6,11.9-0.6,11.9s-0.3-12.9-0.8-13.1s-1.4,6.5-1.4,6.5l-0.8-6.9c0,0-1.3-2.3-1.9-1.3s-1.1,10.2-1.1,10.2
			s-0.6-9.8-0.9-10.2s-2.3-1.4-2-2.1s3.7-1.1,5.3-0.4s2.5,0.9,3.4,0.3s3.6-1.6,4.6-1.1s3.1,0.5,3.9-1S287.8,63.3,288.7,64z"/>
		<path fill="#FFFFFF" d="M297.8,62.9c0.6,2.2,0.8,4.5,1.7,5.1s2,13.8,2,13.8s-0.3-12.3,0.8-11.9s1.5,8.4,1.6,8s0.3-7.3,1-7.1
			s4.9,0,5.1,3.2s0.6,11.9,0.6,11.9s0.3-12.9,0.8-13.1s1.4,6.5,1.4,6.5l0.8-6.9c0,0,1.3-2.3,1.9-1.3s1.1,10.2,1.1,10.2
			s0.6-9.8,0.9-10.2s0.8-1.7,2-3.1c-1.8,0.3-3.8,0-5.4,0.6s-2.5,0.9-3.4,0.3s-3.6-1.6-4.6-1.1s-2.7,0.2-3.9-1
			C300.7,65.2,298.6,62.2,297.8,62.9z"/>
		<path fill="#FFFFFF" d="M331,69.9c0.1,0.9,0.4,1.4,1.4,1.6s1.6,15,1.6,15s0.1-14.8,0.9-15.7s4.9,0,5.4-0.9s0.4-3.1-1.2-2.1
			s-3.1,2.6-4.8,2S331,69.9,331,69.9z"/>
		<path fill="#FFFFFF" d="M299.8,36c4.3-3.8,4.7-3.4,6-3.8s1.2,3.1,1.9,5.1c0.6-1.5,0.6-5.1,0.6-5.1s1.4-1.6,2.3-0.4
			s1.6,11.5,1.6,11.5s0.1-12.1,1.1-11.9s4,1.5,4.4,0.5c0.4-1-1.3-4.2-3.3-3.5c-4.9,1.9-6.3,1.4-8.6,1.1S298.9,35.1,299.8,36z"/>
	</g>
</g>
</svg>
