<?xml version="1.0" encoding="utf-8"?>
<!-- Generator: Adobe Illustrator 18.1.0, SVG Export Plug-In . SVG Version: 6.00 Build 0)  -->
<svg version="1.1" id="Layer_1" xmlns="http://www.w3.org/2000/svg" xmlns:xlink="http://www.w3.org/1999/xlink" x="0px" y="0px"
	 viewBox="0 0 10 10" enable-background="new 0 0 10 10" xml:space="preserve">
<path fill="#656565" d="M5.7,5l4.1-4.1c0.2-0.2,0.2-0.5,0-0.7s-0.5-0.2-0.7,0L5,4.3L0.9,0.2c-0.2-0.2-0.5-0.2-0.7,0s-0.2,0.5,0,0.7
	L4.3,5L0.2,9.1c-0.2,0.2-0.2,0.5,0,0.7C0.3,9.9,0.4,10,0.5,10s0.3-0.1,0.4-0.2L5,5.7l4.1,4.1C9.2,9.9,9.3,10,9.5,10s0.3-0.1,0.4-0.2
	c0.2-0.2,0.2-0.5,0-0.7L5.7,5z"/>
</svg>
