<?xml version="1.0" encoding="utf-8"?>
<!-- Generator: Adobe Illustrator 15.1.0, SVG Export Plug-In  -->
<!DOCTYPE svg PUBLIC "-//W3C//DTD SVG 1.1//EN" "http://www.w3.org/Graphics/SVG/1.1/DTD/svg11.dtd" [
	<!ENTITY ns_flows "http://ns.adobe.com/Flows/1.0/">
]>
<svg version="1.1"
	 xmlns="http://www.w3.org/2000/svg" xmlns:xlink="http://www.w3.org/1999/xlink" xmlns:a="http://ns.adobe.com/AdobeSVGViewerExtensions/3.0/"
	 x="0px" y="0px" width="25px" height="25px" viewBox="111.916 118.61 25 25" enable-background="new 111.916 118.61 25 25"
	 xml:space="preserve">
<defs>
</defs>
<rect display="none" width="347.97" height="385.373"/>
<radialGradient id="SVGID_1_" cx="124.4897" cy="131.1836" r="13.7603" gradientTransform="matrix(1 0 0 0.4 0 78.7102)" gradientUnits="userSpaceOnUse">
	<stop  offset="0" style="stop-color:#FFFFFF;stop-opacity:0.71"/>
	<stop  offset="0.2085" style="stop-color:#FBFBFD;stop-opacity:0.562"/>
	<stop  offset="1" style="stop-color:#F9F9FC;stop-opacity:0"/>
</radialGradient>
<path opacity="0.42" fill="url(#SVGID_1_)" d="M138.25,131.184c-4.082,0.711-7.173,0.482-9.28,2.899
	c-2.522,2.894-3.009,5.472-4.48,10.86c-1.083-3.838-2.209-7.346-4.73-10.496c-1.885-2.355-4.013-2.098-9.029-3.264
	c4.378-1.022,6.823-1.34,9.485-3.85c2.463-2.321,3.283-5.654,4.274-9.911c1.106,3.892,1.725,7.021,4.207,9.456
	C131.242,129.376,132.07,128.885,138.25,131.184z"/>
<polygon opacity="0.65" fill="#FFFFFF" points="123.497,130.191 124.489,124.992 125.482,130.191 129.512,131.184 125.482,132.177 
	124.489,137.376 123.497,132.177 119.468,131.184 "/>
<radialGradient id="SVGID_2_" cx="124.4897" cy="131.1841" r="12.5737" gradientTransform="matrix(-0.0059 -1 0.4 -0.0023 72.7454 255.9787)" gradientUnits="userSpaceOnUse">
	<stop  offset="0" style="stop-color:#FFFFFF;stop-opacity:0.71"/>
	<stop  offset="0.2085" style="stop-color:#FBFBFD;stop-opacity:0.562"/>
	<stop  offset="1" style="stop-color:#F9F9FC;stop-opacity:0"/>
</radialGradient>
<path opacity="0.42" fill="url(#SVGID_2_)" d="M137.063,131.185c-3.73,0.649-6.554,0.44-8.48,2.649c-2.305,2.644-2.75,5-4.094,9.924
	c-0.989-3.507-2.019-6.712-4.323-9.591c-1.722-2.152-3.667-1.917-8.25-2.982c4-0.934,6.234-1.225,8.667-3.518
	c2.251-2.121,3-5.167,3.906-9.057c1.011,3.557,1.576,6.416,3.844,8.64C130.66,129.533,131.417,129.084,137.063,131.185z"/>
</svg>
