<?xml version="1.0" encoding="utf-8"?>
<!-- Generator: Adobe Illustrator 18.1.0, SVG Export Plug-In . SVG Version: 6.00 Build 0)  -->
<svg version="1.1" id="Layer_1" xmlns="http://www.w3.org/2000/svg" xmlns:xlink="http://www.w3.org/1999/xlink" x="0px" y="0px"
	 viewBox="0 0 94.9 36.9" enable-background="new 0 0 94.9 36.9" xml:space="preserve">
<g>
	<path fill="#0096A9" d="M52.8,14.5c-2.4-2.4-5.8-3.4-9.3-3.7c-0.7-0.1-0.7,0.4-0.7,0.4v1.4c0,0.4,0.7,0.4,0.7,0.4
		c6.2,0,10.8,4.7,10.8,10.9c0,6.2-4.6,10.9-10.8,10.9c-6.1,0-10.8-4.8-10.8-10.8v0h0c0-0.5-0.2-0.5-0.6-0.5h-1.3
		c-0.6,0-0.5,0.6-0.5,0.6h0c0,3.6,1.4,6.8,3.8,9.2c2.4,2.4,5.7,3.7,9.3,3.7c3.5,0,6.8-1.3,9.3-3.7c2.5-2.4,3.9-5.8,3.9-9.4
		C56.6,20.2,55.3,16.9,52.8,14.5z"/>
	<g>
		<g>
			<path fill="#FFFFFF" d="M94.1,34.6h-3.9h0c-2.8,0-4.5,0-5.8-0.9c-1.6-1-2.7-3.1-2.7-5.1v-0.5v-6.3c0-2.8,0-4.5,0.9-5.8
				c1-1.6,2.7-2.6,5.1-2.6v0h6.5c0.4,0,0.8-0.3,0.8-0.7v-0.9c0-0.4-0.3-0.7-0.8-0.7h-3.7h-2.9l0,0c0,0,0,0,0,0h0c0,0,0,0,0,0
				c-3,0-5.8,1.7-7,3.9c-0.8,1.4-1.1,3.2-1.1,6.7c0,0,0,0,0,0v6.9h0c0,0,0,0,0,0v0.4c0,0,0,0.1,0,0.1c0.2,2.8,1.7,5.5,3.9,6.6
				c1.3,0.8,2.9,1.1,6,1.1c0,0,0.1,0,0.1,0h4.7c0.6,0,0.8-0.3,0.8-0.6v-1C94.9,34.8,94.6,34.6,94.1,34.6z"/>
			<path fill="#FFFFFF" d="M94.3,22.4H91h-1.2c-0.7,0-0.7,0.7-0.7,0.7V24c0,0.4,0.3,0.7,0.7,0.7h4.6c0.4,0,0.7-0.3,0.7-0.7v-0.9
				C95,22.7,94.7,22.4,94.3,22.4z"/>
		</g>
		<path fill="#FFFFFF" d="M26.7,11h-1.6c-0.3,0-0.5,0.2-0.6,0.4L13.8,33.1L3,11.4C2.9,11.1,2.7,11,2.4,11H0.8
			c-0.4,0-0.7,0.3-0.7,0.7v24.6c0,0.4,0.3,0.7,0.7,0.7h1c0.4,0,0.7-0.3,0.7-0.7V15.6l10.4,21c0.1,0.2,0.4,0.4,0.6,0.4h0.6
			c0.3,0,0.5-0.2,0.6-0.4l10.3-21v20.7c0,0.4,0.3,0.7,0.7,0.7h1c0.4,0,0.7-0.3,0.7-0.7V11.7C27.4,11.3,27.1,11,26.7,11"/>
		<path fill="#FFFFFF" d="M74.8,24.7c1.1-1.5,1.8-3.5,1.7-5.4c0-3-1.7-6-3.9-7.2c-1.4-0.8-3.2-1.1-6.9-1.1h-5.6
			c-0.4,0-0.7,0.3-0.7,0.7v24.6c0,0.4,0.3,0.7,0.7,0.7h1c0.4,0,0.7-0.3,0.7-0.7v-23h3.9c2.8,0,4.5,0,5.8,0.9c1.6,1,2.6,3.1,2.6,5.1
			c0,1.9-0.6,3.4-1.9,4.8c-1.4,1.4-4.1,1.4-5.8,1.4h-0.7c-0.3,0-0.5,0.1-0.6,0.4c-0.1,0.2-0.1,0.5,0.1,0.7l7.2,10.2
			c0.1,0.2,0.3,0.3,0.6,0.3h1.3c0.3,0,0.5-0.1,0.6-0.4c0.1-0.2,0.1-0.5-0.1-0.7l-5.9-8.3C71.2,27.5,73.1,26.9,74.8,24.7"/>
		<g>
			<g>
				<path fill="#FFFFFF" d="M16.2,7.2c-1.7,0-3.1-1.4-3.1-3.2c0-1.8,1.3-3.2,3.1-3.2c1.8,0,3.1,1.4,3.1,3.2
					C19.3,5.8,18,7.2,16.2,7.2 M16.2,0.1c-2.1,0-3.8,1.7-3.8,3.9c0,2.2,1.7,3.9,3.8,3.9C18.3,7.9,20,6.2,20,4
					C20,1.8,18.3,0.1,16.2,0.1"/>
				<path fill="#FFFFFF" d="M16.2,8c-2.2,0-3.9-1.8-3.9-4c0-2.2,1.7-4,3.9-4s3.9,1.8,3.9,4C20.1,6.3,18.4,8,16.2,8z M16.2,0.2
					c-2.1,0-3.7,1.7-3.7,3.8s1.6,3.8,3.7,3.8c2.1,0,3.7-1.7,3.7-3.8S18.3,0.2,16.2,0.2z M16.2,7.3C14.4,7.3,13,5.9,13,4
					c0-1.9,1.4-3.3,3.2-3.3c1.8,0,3.2,1.4,3.2,3.3C19.4,5.9,18,7.3,16.2,7.3z M16.2,0.9c-1.7,0-3,1.3-3,3.1c0,1.8,1.3,3.1,3,3.1
					c1.7,0,3-1.3,3-3.1C19.2,2.2,17.9,0.9,16.2,0.9z"/>
			</g>
			<g>
				<path fill="#FFFFFF" d="M4.4,0.2H0.3c-0.1,0-0.2,0.1-0.2,0.2v0.3c0,0.1,0.1,0.2,0.2,0.2H2v6.7c0,0.1,0.1,0.2,0.2,0.2h0.3
					c0.1,0,0.2-0.1,0.2-0.2V0.9h1.7c0.1,0,0.2-0.1,0.2-0.2V0.4C4.6,0.3,4.5,0.2,4.4,0.2"/>
				<path fill="#FFFFFF" d="M2.5,7.9H2.2C2,7.9,1.9,7.7,1.9,7.6V1H0.3C0.1,1,0,0.9,0,0.7V0.4c0-0.2,0.1-0.3,0.3-0.3h4.1
					c0.2,0,0.3,0.1,0.3,0.3v0.3C4.7,0.9,4.5,1,4.4,1H2.8v6.6C2.8,7.7,2.7,7.9,2.5,7.9z M0.3,0.3c-0.1,0-0.1,0-0.1,0.1v0.3
					c0,0.1,0,0.1,0.1,0.1h1.8v6.8c0,0.1,0,0.1,0.1,0.1h0.3c0.1,0,0.1,0,0.1-0.1V0.8h1.8c0.1,0,0.1,0,0.1-0.1V0.4
					c0-0.1,0-0.1-0.1-0.1H0.3z"/>
			</g>
			<g>
				<path fill="#FFFFFF" d="M10.5,0.2h-0.3c-0.1,0-0.2,0.1-0.2,0.2v3.2H6.6V0.4c0-0.1-0.1-0.2-0.2-0.2H6.1C6,0.2,5.9,0.3,5.9,0.4
					v7.1c0,0.1,0.1,0.2,0.2,0.2h0.3c0.1,0,0.2-0.1,0.2-0.2V4.3H10v3.3c0,0.1,0.1,0.2,0.2,0.2h0.3c0.1,0,0.2-0.1,0.2-0.2V0.4
					C10.7,0.3,10.6,0.2,10.5,0.2"/>
				<path fill="#FFFFFF" d="M10.5,7.9h-0.3c-0.2,0-0.3-0.1-0.3-0.3V4.4H6.7v3.2c0,0.2-0.1,0.3-0.3,0.3H6.1c-0.2,0-0.3-0.1-0.3-0.3
					V0.4c0-0.2,0.1-0.3,0.3-0.3h0.3c0.2,0,0.3,0.1,0.3,0.3v3.1h3.3V0.4c0-0.2,0.1-0.3,0.3-0.3h0.3c0.2,0,0.3,0.1,0.3,0.3v7.1
					C10.8,7.7,10.7,7.9,10.5,7.9z M6.5,4.2h3.7v3.4c0,0.1,0,0.1,0.1,0.1h0.3c0.1,0,0.1,0,0.1-0.1V0.4c0-0.1,0-0.1-0.1-0.1h-0.3
					c-0.1,0-0.1,0-0.1,0.1v3.3H6.5V0.4c0-0.1,0-0.1-0.1-0.1H6.1C6,0.3,6,0.4,6,0.4v7.1c0,0.1,0,0.1,0.1,0.1h0.3c0.1,0,0.1,0,0.1-0.1
					V4.2z"/>
			</g>
			<g>
				<g>
					<path fill="#FFFFFF" d="M41,3.6L41,3.6c-1.1-0.3-1.8-0.5-1.8-1.5c0-0.8,0.6-1.3,1.4-1.3c0.7,0,1.2,0.4,1.3,1.2
						c0,0.1,0.1,0.2,0.2,0.2h0.3c0.1,0,0.1,0,0.2-0.1c0,0,0.1-0.1,0-0.2c-0.2-1.4-1.2-1.8-2-1.8c-0.6,0-1.2,0.2-1.6,0.6
						c-0.4,0.4-0.6,0.9-0.5,1.5c0,1.5,1.3,1.8,2,2l0,0c0.7,0.2,1.6,0.4,1.6,1.5c0,0.9-0.8,1.5-1.5,1.5c-0.2,0-1.3-0.1-1.5-1.5
						c0-0.1-0.1-0.2-0.2-0.2h-0.3c-0.1,0-0.1,0-0.2,0.1c0,0-0.1,0.1-0.1,0.2c0.1,1.4,1.2,2.1,2.2,2.1c1.1,0,2.2-0.8,2.2-2.2
						C42.9,4.1,41.5,3.7,41,3.6"/>
				</g>
				<g>
					<path fill="#FFFFFF" d="M40.6,8c-1.1,0-2.2-0.8-2.3-2.2c0-0.1,0-0.2,0.1-0.2c0.1-0.1,0.1-0.1,0.2-0.1h0.3
						c0.2,0,0.3,0.1,0.3,0.3c0.2,1.3,1.2,1.4,1.4,1.4c0.7,0,1.4-0.5,1.4-1.4c0-1-0.8-1.3-1.5-1.4l-0.1,0c-0.7-0.2-2-0.5-2-2.1
						c0-0.6,0.2-1.1,0.6-1.5C39.4,0.2,40,0,40.7,0c0.9,0,1.9,0.5,2.1,1.9c0,0.1,0,0.2-0.1,0.2c-0.1,0.1-0.1,0.1-0.2,0.1h-0.3
						c-0.2,0-0.3-0.1-0.3-0.3c-0.1-0.8-0.5-1.1-1.2-1.1c-0.7,0-1.3,0.5-1.3,1.2C39.4,3,40,3.2,41,3.5l0.1,0C41.5,3.6,43,4,43,5.7
						C43,7.1,41.7,8,40.6,8z M38.6,5.7C38.6,5.7,38.6,5.7,38.6,5.7c-0.1,0.1-0.1,0.1-0.1,0.1c0.1,1.3,1.1,2,2.1,2
						c1,0,2.1-0.8,2.1-2.1c0-1.5-1.3-1.9-1.7-2l-0.1,0c-1-0.3-1.8-0.5-1.8-1.6c0-0.8,0.6-1.4,1.5-1.4c0.8,0,1.3,0.4,1.4,1.3
						c0,0.1,0.1,0.1,0.1,0.1h0.3c0,0,0.1,0,0.1,0c0,0,0-0.1,0-0.1c-0.2-1.3-1.1-1.8-1.9-1.8c-0.6,0-1.1,0.2-1.5,0.6
						c-0.3,0.4-0.5,0.8-0.5,1.4c0,1.4,1.2,1.7,1.9,1.9l0.1,0c0.7,0.2,1.6,0.5,1.6,1.6c0,1-0.8,1.6-1.6,1.6c-0.2,0-1.4-0.1-1.6-1.6
						c0-0.1-0.1-0.1-0.1-0.1H38.6z"/>
				</g>
			</g>
			<g>
				<path fill="#FFFFFF" d="M29.1,0.2h-0.4c-0.1,0-0.2,0-0.2,0.1l-3,6.3l-3-6.3c0-0.1-0.1-0.1-0.2-0.1h-0.5c-0.1,0-0.2,0.1-0.2,0.2
					v7.1c0,0.1,0.1,0.2,0.2,0.2h0.3c0.1,0,0.2-0.1,0.2-0.2V1.6l2.9,6c0,0.1,0.1,0.1,0.2,0.1h0.2c0.1,0,0.2,0,0.2-0.1l2.9-6v5.9
					c0,0.1,0.1,0.2,0.2,0.2h0.3c0.1,0,0.2-0.1,0.2-0.2V0.4C29.3,0.3,29.3,0.2,29.1,0.2"/>
				<path fill="#FFFFFF" d="M29.1,7.9h-0.3c-0.2,0-0.3-0.1-0.3-0.3V2.1l-2.7,5.6c-0.1,0.1-0.2,0.2-0.3,0.2h-0.2
					c-0.1,0-0.2-0.1-0.3-0.2l-2.7-5.6v5.5c0,0.2-0.1,0.3-0.3,0.3h-0.3c-0.2,0-0.3-0.1-0.3-0.3V0.4c0-0.2,0.1-0.3,0.3-0.3h0.5
					c0.1,0,0.2,0.1,0.3,0.2l2.9,6.1l2.9-6.1c0.1-0.1,0.2-0.2,0.3-0.2h0.4c0.2,0,0.3,0.1,0.3,0.3v7.1C29.4,7.7,29.3,7.9,29.1,7.9z
					 M28.7,1.2v6.4c0,0.1,0,0.1,0.1,0.1h0.3c0.1,0,0.1,0,0.1-0.1V0.4c0-0.1,0-0.1-0.1-0.1h-0.4c0,0-0.1,0-0.1,0.1l-3.1,6.5l-3.1-6.5
					c0,0-0.1-0.1-0.1-0.1h-0.5c-0.1,0-0.1,0-0.1,0.1v7.1c0,0.1,0,0.1,0.1,0.1h0.3c0.1,0,0.1,0,0.1-0.1V1.2l3.1,6.4
					c0,0,0.1,0.1,0.1,0.1h0.2c0,0,0.1,0,0.1-0.1L28.7,1.2z"/>
			</g>
			<g>
				<g>
					<path fill="#FFFFFF" d="M32.7,4.6L34,1.3l1.4,3.4H32.7z M34.4,0.4c0-0.1-0.1-0.1-0.2-0.1h-0.4c-0.1,0-0.2,0.1-0.2,0.1l-3,7.1
						c0,0.1,0,0.1,0,0.2c0,0.1,0.1,0.1,0.2,0.1h0.3c0.1,0,0.2-0.1,0.2-0.1l1-2.4h3.4l1,2.4c0,0.1,0.1,0.1,0.2,0.1h0.3
						c0.1,0,0.1,0,0.2-0.1c0-0.1,0-0.1,0-0.2L34.4,0.4z"/>
				</g>
				<g>
					<path fill="#FFFFFF" d="M37.2,7.9h-0.3c-0.1,0-0.2-0.1-0.3-0.2l-1-2.3h-3.2l-1,2.3c0,0.1-0.2,0.2-0.3,0.2h-0.3
						c-0.1,0-0.2-0.1-0.3-0.1c-0.1-0.1-0.1-0.2,0-0.3l3-7.1c0-0.1,0.2-0.2,0.3-0.2h0.4c0.1,0,0.2,0.1,0.3,0.2l3,7.1
						c0,0.1,0,0.2,0,0.3C37.4,7.8,37.3,7.9,37.2,7.9z M32.3,5.2h3.5l1,2.4c0,0,0.1,0.1,0.1,0.1h0.3c0,0,0.1,0,0.1,0c0,0,0-0.1,0-0.1
						l-3-7.1c0,0-0.1-0.1-0.1-0.1h-0.4c0,0-0.1,0-0.1,0.1l-3,7.1c0,0,0,0.1,0,0.1c0,0,0.1,0,0.1,0h0.3c0,0,0.1,0,0.1-0.1L32.3,5.2z
						 M35.6,4.7h-3.1L34,1L35.6,4.7z M32.8,4.5h2.5l-1.2-3L32.8,4.5z"/>
				</g>
			</g>
		</g>
	</g>
</g>
</svg>
