<?xml version="1.0" encoding="utf-8"?>
<!-- Generator: Adobe Illustrator 18.1.0, SVG Export Plug-In . SVG Version: 6.00 Build 0)  -->
<svg version="1.1" id="Layer_1" xmlns="http://www.w3.org/2000/svg" xmlns:xlink="http://www.w3.org/1999/xlink" x="0px" y="0px"
	 viewBox="0 0 154.4 60.2" enable-background="new 0 0 154.4 60.2" xml:space="preserve">
<g>
	<path fill="#0096A9" d="M85.8,23.5c-4-3.9-9.4-5.5-15.1-6c-1.2-0.1-1.2,0.6-1.2,0.6v2.3c0,0.7,1.2,0.7,1.2,0.7
		c10,0,17.6,7.6,17.6,17.7c0,10.1-7.6,17.7-17.6,17.7c-9.9,0-17.6-7.7-17.6-17.6v0h0c0-0.7-0.4-0.8-0.9-0.8h-2.1c-0.9,0-0.8,1-0.8,1
		h0c0.1,5.8,2.3,11.1,6.3,15c4,3.9,9.3,6,15.1,6c5.8,0,11.1-2.1,15.1-6c4-4,6.3-9.4,6.3-15.3C92.1,32.9,89.8,27.5,85.8,23.5z"/>
	<g>
		<g>
			<path fill="#FFFFFF" d="M153,56.3h-6.4h0c-4.6,0-7.3-0.1-9.4-1.4c-2.5-1.6-4.4-5-4.4-8.3v-0.7V35.6c0-4.6,0.1-7.3,1.4-9.4
				c1.6-2.5,4.4-4.2,8.3-4.2v0h10.5c0.7,0,1.3-0.5,1.3-1.2v-1.5c0-0.7-0.6-1.2-1.3-1.2H147h-4.8l0,0c0,0,0,0,0,0h0c0,0,0,0,0,0
				c-4.8,0-9.4,2.7-11.3,6.4c-1.3,2.3-1.8,5.2-1.8,10.9c0,0,0,0,0,0v11.2h0c0,0,0,0,0,0v0.7c0,0.1,0,0.1,0.1,0.1
				c0.3,4.6,2.8,9,6.3,10.8c2.1,1.2,4.8,1.7,9.7,1.8c0.1,0,0.1,0,0.2,0h7.6c1,0,1.4-0.4,1.4-1v-1.6C154.3,56.6,153.7,56.3,153,56.3z
				"/>
			<path fill="#FFFFFF" d="M153.3,36.5H148h-2c-1.2,0-1.2,1.1-1.2,1.1V39c0,0.6,0.5,1.1,1.1,1.1h7.4c0.6,0,1.1-0.5,1.1-1.1v-1.5
				C154.4,37,153.9,36.5,153.3,36.5z"/>
		</g>
		<path fill="#FFFFFF" d="M43.4,17.8h-2.5c-0.4,0-0.8,0.2-1,0.6L22.4,53.9L5,18.5c-0.2-0.4-0.6-0.6-1-0.6H1.4
			c-0.6,0-1.1,0.5-1.1,1.1v40c0,0.6,0.5,1.1,1.1,1.1H3c0.6,0,1.1-0.5,1.1-1.1V25.4l16.8,34.1c0.2,0.4,0.6,0.6,1,0.6h0.9
			c0.4,0,0.8-0.2,1-0.6l16.8-34.1V59c0,0.6,0.5,1.1,1.1,1.1h1.6c0.6,0,1.1-0.5,1.1-1.1V19C44.6,18.3,44.1,17.8,43.4,17.8"/>
		<path fill="#FFFFFF" d="M121.6,40.2c1.9-2.4,2.9-5.7,2.8-8.8c0-4.9-2.7-9.8-6.4-11.6c-2.3-1.3-5.2-1.8-11.2-1.8h-9.1
			c-0.6,0-1.1,0.5-1.1,1.1v40c0,0.6,0.5,1.1,1.1,1.1h1.6c0.6,0,1.1-0.5,1.1-1.1V21.6h6.4c4.6,0,7.3,0.1,9.4,1.4
			c2.5,1.6,4.2,5,4.2,8.4c0,3.1-1,5.5-3.1,7.8c-2.2,2.2-6.7,2.2-9.4,2.2h-1.1c-0.4,0-0.8,0.2-1,0.6c-0.2,0.4-0.2,0.8,0.1,1.2
			l11.7,16.6c0.2,0.3,0.6,0.5,0.9,0.5h2.1c0.4,0,0.8-0.2,1-0.6c0.2-0.4,0.2-0.8-0.1-1.2L112,45C115.7,44.7,118.8,43.8,121.6,40.2"/>
		<g>
			<g>
				<path fill="#FFFFFF" d="M26.3,11.8c-2.8,0-5.1-2.3-5.1-5.2c0-3,2.2-5.2,5.1-5.2c2.9,0,5.1,2.3,5.1,5.2
					C31.4,9.5,29.2,11.8,26.3,11.8 M26.3,0.2c-3.5,0-6.2,2.8-6.2,6.3c0,3.6,2.7,6.3,6.2,6.3c3.5,0,6.2-2.8,6.2-6.3
					C32.5,3,29.8,0.2,26.3,0.2"/>
				<path fill="#FFFFFF" d="M26.3,13c-3.6,0-6.4-2.9-6.4-6.5c0-3.7,2.8-6.5,6.4-6.5s6.4,2.9,6.4,6.5C32.7,10.2,29.9,13,26.3,13z
					 M26.3,0.3c-3.4,0-6,2.7-6,6.2s2.7,6.2,6,6.2c3.4,0,6-2.7,6-6.2S29.7,0.3,26.3,0.3z M26.3,11.9c-2.9,0-5.2-2.4-5.2-5.4
					c0-3.1,2.2-5.4,5.2-5.4c3,0,5.2,2.3,5.2,5.4C31.5,9.6,29.3,11.9,26.3,11.9z M26.3,1.4c-2.8,0-4.9,2.2-4.9,5.1
					c0,2.8,2.1,5.1,4.9,5.1c2.8,0,4.9-2.2,4.9-5.1C31.2,3.6,29.1,1.4,26.3,1.4z"/>
			</g>
			<g>
				<path fill="#FFFFFF" d="M7.1,0.4H0.5c-0.2,0-0.3,0.2-0.3,0.3v0.4c0,0.2,0.2,0.3,0.3,0.3h2.7v10.8c0,0.2,0.2,0.3,0.3,0.3H4
					c0.2,0,0.3-0.2,0.3-0.3V1.5h2.7c0.2,0,0.3-0.2,0.3-0.3V0.7C7.4,0.5,7.3,0.4,7.1,0.4"/>
				<path fill="#FFFFFF" d="M4,12.8H3.6c-0.3,0-0.5-0.2-0.5-0.5V1.6H0.5C0.2,1.6,0,1.4,0,1.1V0.7c0-0.3,0.2-0.5,0.5-0.5h6.6
					c0.3,0,0.5,0.2,0.5,0.5v0.4c0,0.3-0.2,0.5-0.5,0.5H4.5v10.7C4.5,12.6,4.3,12.8,4,12.8z M0.5,0.5c-0.1,0-0.2,0.1-0.2,0.2v0.4
					c0,0.1,0.1,0.2,0.2,0.2h2.9v11c0,0.1,0.1,0.2,0.2,0.2H4c0.1,0,0.2-0.1,0.2-0.2v-11h2.9c0.1,0,0.2-0.1,0.2-0.2V0.7
					c0-0.1-0.1-0.2-0.2-0.2H0.5z"/>
			</g>
			<g>
				<path fill="#FFFFFF" d="M17.1,0.4h-0.5c-0.2,0-0.3,0.2-0.3,0.3v5.2h-5.6V0.7c0-0.2-0.2-0.3-0.3-0.3H9.9c-0.2,0-0.3,0.2-0.3,0.3
					v11.6c0,0.2,0.2,0.3,0.3,0.3h0.5c0.2,0,0.3-0.2,0.3-0.3V7h5.6v5.3c0,0.2,0.2,0.3,0.3,0.3h0.5c0.2,0,0.3-0.2,0.3-0.3V0.7
					C17.5,0.5,17.3,0.4,17.1,0.4"/>
				<path fill="#FFFFFF" d="M17.1,12.8h-0.5c-0.3,0-0.5-0.2-0.5-0.5V7.2h-5.3v5.1c0,0.3-0.2,0.5-0.5,0.5H9.9c-0.3,0-0.5-0.2-0.5-0.5
					V0.7c0-0.3,0.2-0.5,0.5-0.5h0.5c0.3,0,0.5,0.2,0.5,0.5v5h5.3v-5c0-0.3,0.2-0.5,0.5-0.5h0.5c0.3,0,0.5,0.2,0.5,0.5v11.6
					C17.6,12.6,17.4,12.8,17.1,12.8z M10.5,6.9h6v5.5c0,0.1,0.1,0.2,0.2,0.2h0.5c0.1,0,0.2-0.1,0.2-0.2V0.7c0-0.1-0.1-0.2-0.2-0.2
					h-0.5c-0.1,0-0.2,0.1-0.2,0.2v5.4h-6V0.7c0-0.1-0.1-0.2-0.2-0.2H9.9c-0.1,0-0.2,0.1-0.2,0.2v11.6c0,0.1,0.1,0.2,0.2,0.2h0.5
					c0.1,0,0.2-0.1,0.2-0.2V6.9z"/>
			</g>
			<g>
				<g>
					<path fill="#FFFFFF" d="M66.7,5.9l-0.1,0C65,5.4,63.8,5,63.8,3.5c0-1.3,0.9-2.2,2.2-2.2c1.2,0,1.9,0.7,2.2,2
						c0,0.2,0.2,0.3,0.3,0.3H69c0.1,0,0.2,0,0.3-0.1c0.1-0.1,0.1-0.2,0.1-0.3c-0.3-2.2-1.9-3-3.3-3c-1,0-1.9,0.4-2.5,1
						c-0.6,0.6-0.9,1.4-0.9,2.4c0,2.4,2.2,3,3.2,3.3l0.1,0c1.1,0.3,2.6,0.7,2.6,2.5c0,1.5-1.3,2.4-2.5,2.4c-0.4,0-2.2-0.1-2.5-2.4
						c0-0.2-0.2-0.3-0.3-0.3h-0.5c-0.1,0-0.2,0-0.2,0.1c-0.1,0.1-0.1,0.2-0.1,0.3c0.2,2.3,1.9,3.5,3.6,3.5c1.7,0,3.6-1.4,3.6-3.6
						C69.7,6.6,67.5,6.1,66.7,5.9"/>
				</g>
				<g>
					<path fill="#FFFFFF" d="M66,13c-1.7,0-3.6-1.2-3.8-3.6c0-0.1,0-0.3,0.1-0.4c0.1-0.1,0.2-0.2,0.4-0.2h0.5c0.3,0,0.5,0.2,0.5,0.4
						c0.3,2.2,2,2.3,2.3,2.3c1.1,0,2.3-0.9,2.3-2.2c0-1.7-1.3-2.1-2.4-2.4l-0.1,0c-1.1-0.3-3.3-0.8-3.3-3.4c0-1,0.3-1.8,0.9-2.5
						C64.1,0.4,65.1,0,66.1,0c1.4,0,3.1,0.8,3.4,3.1c0,0.1,0,0.3-0.1,0.4c-0.1,0.1-0.2,0.2-0.4,0.2h-0.5c-0.2,0-0.5-0.2-0.5-0.4
						c-0.2-1.3-0.9-1.9-2-1.9c-1.2,0-2.1,0.8-2.1,2c0,1.4,1,1.8,2.7,2.2l0.1,0c0.8,0.2,3.1,0.8,3.1,3.6C69.8,11.6,67.9,13,66,13z
						 M62.8,9.2c0,0-0.1,0-0.1,0.1c0,0,0,0.1,0,0.1c0.1,2.2,1.8,3.3,3.4,3.3c1.7,0,3.5-1.3,3.5-3.4c0-2.5-2.1-3.1-2.8-3.2l-0.1,0
						c-1.7-0.4-2.9-0.9-2.9-2.5c0-1.4,1-2.3,2.4-2.3c1.3,0,2.1,0.7,2.3,2.1c0,0.1,0.1,0.1,0.2,0.1H69c0.1,0,0.1,0,0.1-0.1
						c0,0,0-0.1,0-0.1c-0.3-2.1-1.8-2.9-3.1-2.9c-0.9,0-1.8,0.3-2.4,1c-0.6,0.6-0.9,1.4-0.8,2.2c0,2.3,2,2.8,3.1,3.1l0.1,0
						c1.1,0.3,2.7,0.7,2.7,2.7c0,1.6-1.4,2.6-2.7,2.6c-0.4,0-2.3-0.1-2.6-2.6c0-0.1-0.1-0.2-0.2-0.2H62.8z"/>
				</g>
			</g>
			<g>
				<path fill="#FFFFFF" d="M47.4,0.4h-0.7c-0.1,0-0.3,0.1-0.3,0.2l-4.9,10.2L36.5,0.6c-0.1-0.1-0.2-0.2-0.3-0.2h-0.7
					c-0.2,0-0.3,0.2-0.3,0.3v11.6c0,0.2,0.2,0.3,0.3,0.3H36c0.2,0,0.3-0.2,0.3-0.3V2.7l4.7,9.8c0.1,0.1,0.2,0.2,0.3,0.2h0.3
					c0.1,0,0.2-0.1,0.3-0.2l4.7-9.8v9.6c0,0.2,0.2,0.3,0.3,0.3h0.5c0.2,0,0.3-0.2,0.3-0.3V0.7C47.7,0.5,47.6,0.4,47.4,0.4"/>
				<path fill="#FFFFFF" d="M47.4,12.8h-0.5c-0.3,0-0.5-0.2-0.5-0.5V3.4L42,12.5c-0.1,0.2-0.3,0.3-0.5,0.3h-0.3
					c-0.2,0-0.4-0.1-0.5-0.3l-4.4-9.1v8.9c0,0.3-0.2,0.5-0.5,0.5h-0.5c-0.3,0-0.5-0.2-0.5-0.5V0.7c0-0.3,0.2-0.5,0.5-0.5h0.7
					c0.2,0,0.4,0.1,0.5,0.3l4.8,9.9l4.7-9.9c0.1-0.2,0.3-0.3,0.5-0.3h0.7c0.3,0,0.5,0.2,0.5,0.5v11.6C47.9,12.6,47.6,12.8,47.4,12.8
					z M46.7,2v10.4c0,0.1,0.1,0.2,0.2,0.2h0.5c0.1,0,0.2-0.1,0.2-0.2V0.7c0-0.1-0.1-0.2-0.2-0.2h-0.7c-0.1,0-0.1,0-0.2,0.1l-5,10.5
					L36.4,0.6c0-0.1-0.1-0.1-0.2-0.1h-0.7c-0.1,0-0.2,0.1-0.2,0.2v11.6c0,0.1,0.1,0.2,0.2,0.2H36c0.1,0,0.2-0.1,0.2-0.2V2l5,10.4
					c0,0.1,0.1,0.1,0.2,0.1h0.3c0.1,0,0.1,0,0.2-0.1L46.7,2z"/>
			</g>
			<g>
				<g>
					<path fill="#FFFFFF" d="M53.1,7.5l2.2-5.5l2.2,5.5H53.1z M55.9,0.6c-0.1-0.1-0.2-0.2-0.3-0.2H55c-0.1,0-0.3,0.1-0.3,0.2
						l-4.8,11.6c0,0.1,0,0.2,0,0.3c0.1,0.1,0.2,0.2,0.3,0.2h0.5c0.1,0,0.3-0.1,0.3-0.2l1.6-3.8H58l1.6,3.8c0.1,0.1,0.2,0.2,0.3,0.2
						h0.5c0.1,0,0.2-0.1,0.3-0.2c0.1-0.1,0.1-0.2,0-0.3L55.9,0.6z"/>
				</g>
				<g>
					<path fill="#FFFFFF" d="M60.5,12.8H60c-0.2,0-0.4-0.1-0.5-0.3l-1.6-3.7h-5.2l-1.6,3.7c-0.1,0.2-0.3,0.3-0.5,0.3h-0.5
						c-0.2,0-0.3-0.1-0.4-0.2c-0.1-0.1-0.1-0.3,0-0.5l4.8-11.6c0.1-0.2,0.3-0.3,0.5-0.3h0.6c0.2,0,0.4,0.1,0.5,0.3l4.8,11.6
						c0.1,0.2,0,0.3,0,0.5C60.8,12.7,60.6,12.8,60.5,12.8z M52.5,8.4h5.7l1.6,3.9c0,0.1,0.1,0.1,0.2,0.1h0.5c0.1,0,0.1,0,0.1-0.1
						c0,0,0-0.1,0-0.2L55.8,0.6c0-0.1-0.1-0.1-0.2-0.1H55c-0.1,0-0.1,0-0.2,0.1L50,12.2c0,0.1,0,0.1,0,0.2c0,0,0.1,0.1,0.1,0.1h0.5
						c0.1,0,0.1,0,0.2-0.1L52.5,8.4z M57.8,7.7h-5l2.5-6.1L57.8,7.7z M53.3,7.3h4l-2-4.9L53.3,7.3z"/>
				</g>
			</g>
		</g>
	</g>
</g>
</svg>
